# File created by Blade
# Date/Time:  Thu Jan 22 16:52:56 2015
# Frame Rate: 120.000 fps
#------------------------------------------------------
:FULLY-SPECIFIED
:DEGREES
1622
root 3.174836 3.306996 -0.045199 -26.398424 2.771373 -0.798793
RightUpLeg -47.579742 -38.027596 -30.192530
RightLeg 0.980116 -0.000000 -0.000000
RightFoot 3.886037 -30.716880 32.684788
RightToeBase 6.570006 -0.000000 -0.000000
LeftUpLeg -62.756716 30.447019 8.148110
LeftLeg 3.508722 -0.000000 -0.000000
LeftFoot 10.195995 31.612105 -38.654265
LeftToeBase -0.972061 -0.000000 0.000000
Spine 87.610168 -6.504758 -8.967592
RightShoulder 82.699992 79.700541 20.158659
RightArm -3.149221 0.041363 66.672760
RightForeArm -7.158066 -0.000000 34.776054
RightHand 5.488479 -0.000000 -8.615667
RightHandThumb1 -24.326973 -0.000000 -32.862282
LeftShoulder 3.613516 14.807207 38.865917
LeftArm 85.069799 -39.458152 -48.538563
LeftForeArm 46.673008 -0.000000 25.299001
LeftHand -11.760509 -0.000000 -3.327695
LeftHandThumb1 -26.253704 0.000000 33.147579
Head -0.427928 8.801730 -22.693989
1623
root 3.174075 3.301029 -0.049201 -26.463147 2.742783 -0.855228
RightUpLeg -47.436270 -37.925089 -30.247435
RightLeg 0.914309 -0.000000 -0.000000
RightFoot 3.857927 -30.754278 32.696801
RightToeBase 6.632379 -0.000000 -0.000000
LeftUpLeg -62.695102 30.411578 8.293856
LeftLeg 3.547432 -0.000000 -0.000000
LeftFoot 10.188314 31.598829 -38.660650
LeftToeBase -0.937862 -0.000000 0.000000
Spine 87.392315 -6.569315 -9.311492
RightShoulder 80.608294 79.470564 17.854847
RightArm -2.994556 0.587679 66.884688
RightForeArm -6.851226 -0.000000 34.834875
RightHand 5.627311 0.000000 -8.904473
RightHandThumb1 -24.326973 -0.000000 -32.862282
LeftShoulder 3.503108 15.150007 38.501550
LeftArm 84.726942 -39.696963 -47.982470
LeftForeArm 46.627500 -0.000000 25.482962
LeftHand -11.844958 -0.000000 -3.287649
LeftHandThumb1 -26.253704 0.000000 33.147579
Head -0.420781 9.497545 -23.658593
1624
root 3.171850 3.302034 -0.053073 -26.660761 2.705585 -0.953834
RightUpLeg -47.168834 -37.802886 -30.295863
RightLeg 0.855572 -0.000000 -0.000000
RightFoot 3.717325 -30.754651 32.896049
RightToeBase 6.771026 -0.000000 -0.000000
LeftUpLeg -62.471040 30.351738 8.549530
LeftLeg 3.557937 -0.000000 -0.000000
LeftFoot 10.173391 31.610274 -38.686662
LeftToeBase -0.906874 -0.000000 0.000000
Spine 87.290197 -6.499798 -9.404747
RightShoulder 77.148658 79.252101 14.307463
RightArm -2.855834 0.961578 66.924217
RightForeArm -6.349381 -0.000000 34.915767
RightHand 5.700904 0.000000 -9.032751
RightHandThumb1 -24.326973 -0.000000 -32.862282
LeftShoulder 3.537620 15.544064 38.322903
LeftArm 84.783068 -40.062348 -47.630017
LeftForeArm 46.460162 -0.000000 25.429001
LeftHand -11.853161 0.000000 -2.967616
LeftHandThumb1 -26.253704 0.000000 33.147579
Head -0.312075 10.478725 -24.109499
1625
root 3.169558 3.301717 -0.056839 -26.870962 2.686512 -1.021950
RightUpLeg -46.902099 -37.677673 -30.391095
RightLeg 0.828351 -0.000000 -0.000000
RightFoot 3.697054 -30.740733 32.910692
RightToeBase 6.733737 -0.000000 -0.000000
LeftUpLeg -62.227080 30.286629 8.775161
LeftLeg 3.557856 -0.000000 -0.000000
LeftFoot 10.184874 31.613309 -38.676799
LeftToeBase -0.904833 -0.000000 0.000000
Spine 87.187791 -6.449484 -9.767343
RightShoulder 74.926826 78.890824 11.945827
RightArm -2.687494 1.357592 66.926438
RightForeArm -5.903456 -0.000000 34.927031
RightHand 5.774935 -0.000000 -9.162255
RightHandThumb1 -24.326973 -0.000000 -32.862282
LeftShoulder 3.518821 15.399812 38.436322
LeftArm 84.061741 -39.889466 -47.608640
LeftForeArm 46.415341 -0.000000 25.825315
LeftHand -12.088691 -0.000000 -2.799535
LeftHandThumb1 -26.253704 0.000000 33.147579
Head -0.233563 11.771127 -24.705838
1626
root 3.168670 3.297733 -0.059178 -26.976765 2.666572 -1.098425
RightUpLeg -46.717025 -37.579181 -30.457559
RightLeg 0.795978 -0.000000 -0.000000
RightFoot 3.778954 -30.789762 32.740973
RightToeBase 6.576271 -0.000000 -0.000000
LeftUpLeg -62.117648 30.237495 8.935203
LeftLeg 3.564205 -0.000000 -0.000000
LeftFoot 10.190037 31.596524 -38.628317
LeftToeBase -0.854987 -0.000000 0.000000
Spine 87.013622 -6.453041 -10.004811
RightShoulder 72.763493 78.703552 9.596450
RightArm -2.704726 1.841741 67.068970
RightForeArm -5.609920 -0.000000 35.027130
RightHand 5.812832 -0.000000 -9.151266
RightHandThumb1 -24.326973 -0.000000 -32.862282
LeftShoulder 3.409048 15.670040 38.150495
LeftArm 83.956767 -40.079972 -47.361998
LeftForeArm 46.078822 -0.000000 25.859974
LeftHand -12.258498 -0.000000 -2.547315
LeftHandThumb1 -26.253704 0.000000 33.147579
Head -0.314612 12.426715 -25.619610
1627
root 3.163767 3.296025 -0.062220 -27.157266 2.636125 -1.249935
RightUpLeg -46.500379 -37.523526 -30.413493
RightLeg 0.783655 -0.000000 -0.000000
RightFoot 3.737917 -30.770077 32.759603
RightToeBase 6.554462 -0.000000 -0.000000
LeftUpLeg -61.931194 30.153103 9.209096
LeftLeg 3.559976 -0.000000 -0.000000
LeftFoot 10.188670 31.630227 -38.635181
LeftToeBase -0.878857 -0.000000 0.000000
Spine 86.875074 -6.425375 -10.064870
RightShoulder 70.178261 78.448295 6.914042
RightArm -2.716388 2.183008 67.057183
RightForeArm -5.346776 -0.000000 35.073010
RightHand 5.898449 -0.000000 -9.176287
RightHandThumb1 -24.326973 -0.000000 -32.862282
LeftShoulder 3.448525 15.722092 37.988663
LeftArm 83.754421 -40.204739 -47.205782
LeftForeArm 45.583343 -0.000000 25.881464
LeftHand -12.273133 -0.000000 -2.374301
LeftHandThumb1 -26.253704 0.000000 33.147579
Head -0.244343 13.187778 -26.298863
1628
root 3.160975 3.294242 -0.064358 -27.290965 2.604609 -1.393356
RightUpLeg -46.343692 -37.497725 -30.347371
RightLeg 0.794111 -0.000000 -0.000000
RightFoot 3.742802 -30.722949 32.654383
RightToeBase 6.574571 -0.000000 -0.000000
LeftUpLeg -61.787038 30.070784 9.461777
LeftLeg 3.552191 -0.000000 -0.000000
LeftFoot 10.177671 31.643666 -38.580937
LeftToeBase -0.829109 -0.000000 0.000000
Spine 86.700113 -6.445558 -10.226021
RightShoulder 67.928940 78.160519 4.506822
RightArm -2.694721 2.588310 67.078029
RightForeArm -5.207483 0.000000 35.132178
RightHand 5.895326 0.000000 -9.210945
RightHandThumb1 -24.326973 -0.000000 -32.862282
LeftShoulder 3.379872 15.973548 37.654206
LeftArm 83.654023 -40.438398 -46.975264
LeftForeArm 45.078725 -0.000000 25.832057
LeftHand -12.371666 -0.000000 -1.931780
LeftHandThumb1 -26.253704 0.000000 33.147579
Head -0.265821 13.904582 -27.151045
1629
root 3.159661 3.289865 -0.066914 -27.385251 2.572221 -1.498213
RightUpLeg -46.242497 -37.468978 -30.288928
RightLeg 0.791143 -0.000000 -0.000000
RightFoot 3.711841 -30.727440 32.650540
RightToeBase 6.588537 -0.000000 -0.000000
LeftUpLeg -61.681924 30.011545 9.661549
LeftLeg 3.539623 -0.000000 -0.000000
LeftFoot 10.218300 31.622421 -38.388882
LeftToeBase -0.714807 -0.000000 0.000000
Spine 86.565845 -6.534777 -10.743855
RightShoulder 67.476499 78.038856 3.670177
RightArm -2.823163 3.171084 67.261725
RightForeArm -5.264456 0.000000 35.189733
RightHand 5.902200 0.000000 -9.267858
RightHandThumb1 -24.326973 -0.000000 -32.862282
LeftShoulder 2.964683 16.322543 37.054008
LeftArm 83.477158 -40.652221 -46.655635
LeftForeArm 44.543347 -0.000000 25.837043
LeftHand -12.536148 -0.000000 -1.537224
LeftHandThumb1 -26.253704 0.000000 33.147579
Head -0.655165 14.671270 -28.382265
1630
root 3.155442 3.285086 -0.069527 -27.527053 2.523734 -1.607351
RightUpLeg -46.077089 -37.385825 -30.265326
RightLeg 0.777164 -0.000000 -0.000000
RightFoot 3.670045 -30.721956 32.632147
RightToeBase 6.553469 -0.000000 -0.000000
LeftUpLeg -61.532038 29.964265 9.893187
LeftLeg 3.542921 -0.000000 -0.000000
LeftFoot 10.237002 31.584747 -38.300250
LeftToeBase -0.670706 -0.000000 0.000000
Spine 86.377386 -6.456694 -10.937149
RightShoulder 65.369221 77.765712 1.414927
RightArm -2.910885 3.600741 67.257989
RightForeArm -5.073395 0.000000 35.249878
RightHand 6.024773 -0.000000 -9.359940
RightHandThumb1 -24.326973 -0.000000 -32.862282
LeftShoulder 2.870122 16.559718 36.812671
LeftArm 83.684989 -40.834115 -46.926818
LeftForeArm 44.327537 -0.000000 25.710480
LeftHand -12.351173 -0.000000 -1.546545
LeftHandThumb1 -26.253704 0.000000 33.147579
Head -0.727705 15.499686 -29.088591
1631
root 3.154973 3.282901 -0.073081 -27.654046 2.508944 -1.670078
RightUpLeg -45.926009 -37.337875 -30.279610
RightLeg 0.755975 -0.000000 -0.000000
RightFoot 3.655152 -30.707340 32.598602
RightToeBase 6.515588 -0.000000 -0.000000
LeftUpLeg -61.389782 29.908679 10.041126
LeftLeg 3.527914 -0.000000 -0.000000
LeftFoot 10.243147 31.549415 -38.295095
LeftToeBase -0.746286 -0.000000 0.000000
Spine 86.170652 -6.387659 -11.243312
RightShoulder 63.005490 77.398893 -1.145423
RightArm -2.916312 4.218778 67.271801
RightForeArm -4.982628 0.000000 35.345363
RightHand 6.017002 0.000000 -9.299359
RightHandThumb1 -24.326973 -0.000000 -32.862282
LeftShoulder 2.771964 16.896808 36.507992
LeftArm 83.996561 -41.109967 -47.252459
LeftForeArm 43.831287 0.000000 25.518224
LeftHand -12.341830 -0.000000 -0.361513
LeftHandThumb1 -26.253704 0.000000 33.147579
Head -0.785402 16.199351 -29.873261
1632
root 3.155135 3.281712 -0.077262 -27.787935 2.500994 -1.763746
RightUpLeg -45.763444 -37.323893 -30.257631
RightLeg 0.728105 -0.000000 -0.000000
RightFoot 3.648990 -30.676605 32.565311
RightToeBase 6.522582 -0.000000 -0.000000
LeftUpLeg -61.233591 29.809582 10.250755
LeftLeg 3.524530 -0.000000 -0.000000
LeftFoot 10.234750 31.531878 -38.258843
LeftToeBase -0.779929 -0.000000 0.000000
Spine 85.998011 -6.358504 -11.582910
RightShoulder 61.662905 77.148496 -2.623811
RightArm -3.031343 4.647508 67.259376
RightForeArm -4.872290 -0.000000 35.350147
RightHand 6.044515 0.000000 -9.384887
RightHandThumb1 -24.326973 -0.000000 -32.862282
LeftShoulder 2.591824 17.098452 36.175994
LeftArm 84.051214 -41.283304 -47.434381
LeftForeArm 43.465854 -0.000000 25.427940
LeftHand -12.418765 -0.000000 -0.150220
LeftHandThumb1 -26.253704 0.000000 33.147579
Head -0.956829 16.899385 -30.746830
